<mxfile host="app.diagrams.net" modified="2023-09-24T21:32:50.796Z" agent="Mozilla/5.0 (Windows NT 10.0; Win64; x64) AppleWebKit/537.36 (KHTML, like Gecko) Chrome/116.0.0.0 Safari/537.36" etag="33TW1stYBlngAKzpmam3" version="21.8.2" type="github">
  <diagram name="Page-1" id="EFdPiBRNNwUkMeEfrPTJ">
    <mxGraphModel dx="2759" dy="2144" grid="1" gridSize="10" guides="1" tooltips="1" connect="1" arrows="1" fold="1" page="1" pageScale="1" pageWidth="850" pageHeight="1100" math="0" shadow="0">
      <root>
        <mxCell id="0" />
        <mxCell id="1" parent="0" />
        <mxCell id="wBh-NPlJDxmPa3w_uLtO-25" style="edgeStyle=orthogonalEdgeStyle;rounded=0;orthogonalLoop=1;jettySize=auto;html=1;entryX=0.75;entryY=0;entryDx=0;entryDy=0;endArrow=none;endFill=0;exitX=0.536;exitY=1.067;exitDx=0;exitDy=0;exitPerimeter=0;" parent="1" source="__9sRC0eCz7Z9V6b7AUr-3" target="wBh-NPlJDxmPa3w_uLtO-21" edge="1">
          <mxGeometry relative="1" as="geometry">
            <mxPoint x="515" y="-17.003333333333387" as="sourcePoint" />
            <Array as="points">
              <mxPoint x="-100" y="-768" />
              <mxPoint x="-100" y="-240" />
              <mxPoint x="-260" y="-240" />
            </Array>
          </mxGeometry>
        </mxCell>
        <mxCell id="wBh-NPlJDxmPa3w_uLtO-26" value="Is" style="edgeLabel;html=1;align=center;verticalAlign=middle;resizable=0;points=[];" parent="wBh-NPlJDxmPa3w_uLtO-25" vertex="1" connectable="0">
          <mxGeometry x="-0.035" relative="1" as="geometry">
            <mxPoint x="15" y="-10" as="offset" />
          </mxGeometry>
        </mxCell>
        <mxCell id="wBh-NPlJDxmPa3w_uLtO-27" value="1" style="edgeLabel;html=1;align=center;verticalAlign=middle;resizable=0;points=[];" parent="wBh-NPlJDxmPa3w_uLtO-25" vertex="1" connectable="0">
          <mxGeometry x="-0.66" y="2" relative="1" as="geometry">
            <mxPoint x="8" y="-12" as="offset" />
          </mxGeometry>
        </mxCell>
        <mxCell id="wBh-NPlJDxmPa3w_uLtO-28" value="1" style="edgeLabel;html=1;align=center;verticalAlign=middle;resizable=0;points=[];" parent="wBh-NPlJDxmPa3w_uLtO-25" vertex="1" connectable="0">
          <mxGeometry x="0.49" y="-3" relative="1" as="geometry">
            <mxPoint x="-27" y="-17" as="offset" />
          </mxGeometry>
        </mxCell>
        <mxCell id="T3I_EOAE7utK3L-I69bM-22" style="edgeStyle=orthogonalEdgeStyle;rounded=0;orthogonalLoop=1;jettySize=auto;html=1;entryX=0.5;entryY=0;entryDx=0;entryDy=0;exitX=0;exitY=0.5;exitDx=0;exitDy=0;" edge="1" parent="1" source="__9sRC0eCz7Z9V6b7AUr-3" target="T3I_EOAE7utK3L-I69bM-45">
          <mxGeometry relative="1" as="geometry">
            <mxPoint x="-250" y="-607" as="targetPoint" />
          </mxGeometry>
        </mxCell>
        <mxCell id="T3I_EOAE7utK3L-I69bM-23" value="Directs To" style="edgeLabel;html=1;align=center;verticalAlign=middle;resizable=0;points=[];" vertex="1" connectable="0" parent="T3I_EOAE7utK3L-I69bM-22">
          <mxGeometry x="0.0231" relative="1" as="geometry">
            <mxPoint x="12" y="-15" as="offset" />
          </mxGeometry>
        </mxCell>
        <mxCell id="T3I_EOAE7utK3L-I69bM-24" value="1" style="edgeLabel;html=1;align=center;verticalAlign=middle;resizable=0;points=[];" vertex="1" connectable="0" parent="T3I_EOAE7utK3L-I69bM-22">
          <mxGeometry x="0.8269" y="-4" relative="1" as="geometry">
            <mxPoint x="-3" y="-11" as="offset" />
          </mxGeometry>
        </mxCell>
        <mxCell id="T3I_EOAE7utK3L-I69bM-25" value="1" style="edgeLabel;html=1;align=center;verticalAlign=middle;resizable=0;points=[];" vertex="1" connectable="0" parent="T3I_EOAE7utK3L-I69bM-22">
          <mxGeometry x="-0.8938" relative="1" as="geometry">
            <mxPoint x="15" as="offset" />
          </mxGeometry>
        </mxCell>
        <mxCell id="__9sRC0eCz7Z9V6b7AUr-2" value="Character Profile" style="swimlane;fontStyle=0;childLayout=stackLayout;horizontal=1;startSize=30;horizontalStack=0;resizeParent=1;resizeParentMax=0;resizeLast=0;collapsible=1;marginBottom=0;whiteSpace=wrap;html=1;" parent="1" vertex="1">
          <mxGeometry x="-180" y="-830" width="160" height="60" as="geometry" />
        </mxCell>
        <mxCell id="__9sRC0eCz7Z9V6b7AUr-3" value="Name" style="text;strokeColor=none;fillColor=none;align=left;verticalAlign=middle;spacingLeft=4;spacingRight=4;overflow=hidden;points=[[0,0.5],[1,0.5]];portConstraint=eastwest;rotatable=0;whiteSpace=wrap;html=1;" parent="__9sRC0eCz7Z9V6b7AUr-2" vertex="1">
          <mxGeometry y="30" width="160" height="30" as="geometry" />
        </mxCell>
        <mxCell id="__9sRC0eCz7Z9V6b7AUr-10" value="Weapon" style="swimlane;fontStyle=0;childLayout=stackLayout;horizontal=1;startSize=30;horizontalStack=0;resizeParent=1;resizeParentMax=0;resizeLast=0;collapsible=1;marginBottom=0;whiteSpace=wrap;html=1;" parent="1" vertex="1">
          <mxGeometry x="-690" y="-160" width="160" height="90" as="geometry" />
        </mxCell>
        <mxCell id="__9sRC0eCz7Z9V6b7AUr-11" value="Skin" style="text;strokeColor=none;fillColor=none;align=left;verticalAlign=middle;spacingLeft=4;spacingRight=4;overflow=hidden;points=[[0,0.5],[1,0.5]];portConstraint=eastwest;rotatable=0;whiteSpace=wrap;html=1;" parent="__9sRC0eCz7Z9V6b7AUr-10" vertex="1">
          <mxGeometry y="30" width="160" height="30" as="geometry" />
        </mxCell>
        <mxCell id="__9sRC0eCz7Z9V6b7AUr-12" value="Action" style="text;strokeColor=none;fillColor=none;align=left;verticalAlign=middle;spacingLeft=4;spacingRight=4;overflow=hidden;points=[[0,0.5],[1,0.5]];portConstraint=eastwest;rotatable=0;whiteSpace=wrap;html=1;" parent="__9sRC0eCz7Z9V6b7AUr-10" vertex="1">
          <mxGeometry y="60" width="160" height="30" as="geometry" />
        </mxCell>
        <mxCell id="__9sRC0eCz7Z9V6b7AUr-14" value="Power-Up" style="swimlane;fontStyle=0;childLayout=stackLayout;horizontal=1;startSize=30;horizontalStack=0;resizeParent=1;resizeParentMax=0;resizeLast=0;collapsible=1;marginBottom=0;whiteSpace=wrap;html=1;" parent="1" vertex="1">
          <mxGeometry x="-520" y="-59.99999999999994" width="160" height="60" as="geometry" />
        </mxCell>
        <mxCell id="__9sRC0eCz7Z9V6b7AUr-15" value="Design" style="text;strokeColor=none;fillColor=none;align=left;verticalAlign=middle;spacingLeft=4;spacingRight=4;overflow=hidden;points=[[0,0.5],[1,0.5]];portConstraint=eastwest;rotatable=0;whiteSpace=wrap;html=1;" parent="__9sRC0eCz7Z9V6b7AUr-14" vertex="1">
          <mxGeometry y="30" width="160" height="30" as="geometry" />
        </mxCell>
        <mxCell id="__9sRC0eCz7Z9V6b7AUr-22" value="Obstacle" style="swimlane;fontStyle=0;childLayout=stackLayout;horizontal=1;startSize=30;horizontalStack=0;resizeParent=1;resizeParentMax=0;resizeLast=0;collapsible=1;marginBottom=0;whiteSpace=wrap;html=1;" parent="1" vertex="1">
          <mxGeometry x="-840" y="-250" width="160" height="60" as="geometry" />
        </mxCell>
        <mxCell id="__9sRC0eCz7Z9V6b7AUr-23" value="Design" style="text;strokeColor=none;fillColor=none;align=left;verticalAlign=middle;spacingLeft=4;spacingRight=4;overflow=hidden;points=[[0,0.5],[1,0.5]];portConstraint=eastwest;rotatable=0;whiteSpace=wrap;html=1;" parent="__9sRC0eCz7Z9V6b7AUr-22" vertex="1">
          <mxGeometry y="30" width="160" height="30" as="geometry" />
        </mxCell>
        <mxCell id="__9sRC0eCz7Z9V6b7AUr-46" value="NPC" style="swimlane;fontStyle=0;childLayout=stackLayout;horizontal=1;startSize=30;horizontalStack=0;resizeParent=1;resizeParentMax=0;resizeLast=0;collapsible=1;marginBottom=0;whiteSpace=wrap;html=1;" parent="1" vertex="1">
          <mxGeometry x="-825" y="-510" width="160" height="60" as="geometry" />
        </mxCell>
        <mxCell id="__9sRC0eCz7Z9V6b7AUr-47" value="Skin" style="text;strokeColor=none;fillColor=none;align=left;verticalAlign=middle;spacingLeft=4;spacingRight=4;overflow=hidden;points=[[0,0.5],[1,0.5]];portConstraint=eastwest;rotatable=0;whiteSpace=wrap;html=1;" parent="__9sRC0eCz7Z9V6b7AUr-46" vertex="1">
          <mxGeometry y="30" width="160" height="30" as="geometry" />
        </mxCell>
        <mxCell id="__9sRC0eCz7Z9V6b7AUr-42" value="Trap" style="swimlane;fontStyle=0;childLayout=stackLayout;horizontal=1;startSize=30;horizontalStack=0;resizeParent=1;resizeParentMax=0;resizeLast=0;collapsible=1;marginBottom=0;whiteSpace=wrap;html=1;" parent="1" vertex="1">
          <mxGeometry x="-160" y="-185" width="160" height="60" as="geometry" />
        </mxCell>
        <mxCell id="__9sRC0eCz7Z9V6b7AUr-43" value="Design" style="text;strokeColor=none;fillColor=none;align=left;verticalAlign=middle;spacingLeft=4;spacingRight=4;overflow=hidden;points=[[0,0.5],[1,0.5]];portConstraint=eastwest;rotatable=0;whiteSpace=wrap;html=1;" parent="__9sRC0eCz7Z9V6b7AUr-42" vertex="1">
          <mxGeometry y="30" width="160" height="30" as="geometry" />
        </mxCell>
        <mxCell id="__9sRC0eCz7Z9V6b7AUr-18" value="Exit" style="swimlane;fontStyle=0;childLayout=stackLayout;horizontal=1;startSize=30;horizontalStack=0;resizeParent=1;resizeParentMax=0;resizeLast=0;collapsible=1;marginBottom=0;whiteSpace=wrap;html=1;" parent="1" vertex="1">
          <mxGeometry x="-240" y="-80" width="160" height="60" as="geometry" />
        </mxCell>
        <mxCell id="__9sRC0eCz7Z9V6b7AUr-19" value="Design" style="text;strokeColor=none;fillColor=none;align=left;verticalAlign=middle;spacingLeft=4;spacingRight=4;overflow=hidden;points=[[0,0.5],[1,0.5]];portConstraint=eastwest;rotatable=0;whiteSpace=wrap;html=1;" parent="__9sRC0eCz7Z9V6b7AUr-18" vertex="1">
          <mxGeometry y="30" width="160" height="30" as="geometry" />
        </mxCell>
        <mxCell id="wBh-NPlJDxmPa3w_uLtO-57" style="edgeStyle=orthogonalEdgeStyle;rounded=0;orthogonalLoop=1;jettySize=auto;html=1;entryX=0.5;entryY=0;entryDx=0;entryDy=0;exitX=0.54;exitY=1.012;exitDx=0;exitDy=0;exitPerimeter=0;" parent="1" source="T3I_EOAE7utK3L-I69bM-9" target="__9sRC0eCz7Z9V6b7AUr-22" edge="1">
          <mxGeometry relative="1" as="geometry" />
        </mxCell>
        <mxCell id="wBh-NPlJDxmPa3w_uLtO-58" value="Contains" style="edgeLabel;html=1;align=center;verticalAlign=middle;resizable=0;points=[];" parent="wBh-NPlJDxmPa3w_uLtO-57" vertex="1" connectable="0">
          <mxGeometry y="-1" relative="1" as="geometry">
            <mxPoint x="9" y="-9" as="offset" />
          </mxGeometry>
        </mxCell>
        <mxCell id="wBh-NPlJDxmPa3w_uLtO-59" value="1" style="edgeLabel;html=1;align=center;verticalAlign=middle;resizable=0;points=[];" parent="wBh-NPlJDxmPa3w_uLtO-57" vertex="1" connectable="0">
          <mxGeometry x="-0.8167" relative="1" as="geometry">
            <mxPoint x="10" y="-1" as="offset" />
          </mxGeometry>
        </mxCell>
        <mxCell id="wBh-NPlJDxmPa3w_uLtO-60" value="0..*" style="edgeLabel;html=1;align=center;verticalAlign=middle;resizable=0;points=[];" parent="wBh-NPlJDxmPa3w_uLtO-57" vertex="1" connectable="0">
          <mxGeometry x="0.7167" y="1" relative="1" as="geometry">
            <mxPoint x="19" as="offset" />
          </mxGeometry>
        </mxCell>
        <mxCell id="wBh-NPlJDxmPa3w_uLtO-61" style="edgeStyle=orthogonalEdgeStyle;rounded=0;orthogonalLoop=1;jettySize=auto;html=1;entryX=0.995;entryY=0.153;entryDx=0;entryDy=0;entryPerimeter=0;exitX=0.25;exitY=0;exitDx=0;exitDy=0;" parent="1" source="__9sRC0eCz7Z9V6b7AUr-51" target="__9sRC0eCz7Z9V6b7AUr-47" edge="1">
          <mxGeometry relative="1" as="geometry">
            <Array as="points">
              <mxPoint x="-530" y="-475" />
            </Array>
          </mxGeometry>
        </mxCell>
        <mxCell id="wBh-NPlJDxmPa3w_uLtO-62" value="Contains" style="edgeLabel;html=1;align=center;verticalAlign=middle;resizable=0;points=[];" parent="wBh-NPlJDxmPa3w_uLtO-61" vertex="1" connectable="0">
          <mxGeometry x="0.0028" y="-3" relative="1" as="geometry">
            <mxPoint x="-25" y="-12" as="offset" />
          </mxGeometry>
        </mxCell>
        <mxCell id="wBh-NPlJDxmPa3w_uLtO-64" value="0..*" style="edgeLabel;html=1;align=center;verticalAlign=middle;resizable=0;points=[];" parent="wBh-NPlJDxmPa3w_uLtO-61" vertex="1" connectable="0">
          <mxGeometry x="0.8266" y="-2" relative="1" as="geometry">
            <mxPoint y="-12" as="offset" />
          </mxGeometry>
        </mxCell>
        <mxCell id="wBh-NPlJDxmPa3w_uLtO-65" value="1" style="edgeLabel;html=1;align=center;verticalAlign=middle;resizable=0;points=[];" parent="wBh-NPlJDxmPa3w_uLtO-61" vertex="1" connectable="0">
          <mxGeometry x="-0.8643" y="-3" relative="1" as="geometry">
            <mxPoint y="-12" as="offset" />
          </mxGeometry>
        </mxCell>
        <mxCell id="wBh-NPlJDxmPa3w_uLtO-68" style="edgeStyle=orthogonalEdgeStyle;rounded=0;orthogonalLoop=1;jettySize=auto;html=1;entryX=0.5;entryY=1;entryDx=0;entryDy=0;entryPerimeter=0;" parent="1" source="__9sRC0eCz7Z9V6b7AUr-51" target="3Jhc_MBJD-DCVVYPn0BB-17" edge="1">
          <mxGeometry relative="1" as="geometry" />
        </mxCell>
        <mxCell id="wBh-NPlJDxmPa3w_uLtO-69" value="Contains" style="edgeLabel;html=1;align=center;verticalAlign=middle;resizable=0;points=[];" parent="wBh-NPlJDxmPa3w_uLtO-68" vertex="1" connectable="0">
          <mxGeometry x="-0.0215" y="-2" relative="1" as="geometry">
            <mxPoint x="-3" y="-13" as="offset" />
          </mxGeometry>
        </mxCell>
        <mxCell id="wBh-NPlJDxmPa3w_uLtO-70" value="0..*" style="edgeLabel;html=1;align=center;verticalAlign=middle;resizable=0;points=[];" parent="wBh-NPlJDxmPa3w_uLtO-68" vertex="1" connectable="0">
          <mxGeometry x="0.7692" y="2" relative="1" as="geometry">
            <mxPoint x="22" as="offset" />
          </mxGeometry>
        </mxCell>
        <mxCell id="wBh-NPlJDxmPa3w_uLtO-71" value="1" style="edgeLabel;html=1;align=center;verticalAlign=middle;resizable=0;points=[];" parent="wBh-NPlJDxmPa3w_uLtO-68" vertex="1" connectable="0">
          <mxGeometry x="-0.7846" y="-1" relative="1" as="geometry">
            <mxPoint x="9" y="52" as="offset" />
          </mxGeometry>
        </mxCell>
        <mxCell id="wBh-NPlJDxmPa3w_uLtO-73" style="edgeStyle=orthogonalEdgeStyle;rounded=0;orthogonalLoop=1;jettySize=auto;html=1;entryX=0;entryY=0.25;entryDx=0;entryDy=0;exitX=1;exitY=0.5;exitDx=0;exitDy=0;" parent="1" source="T3I_EOAE7utK3L-I69bM-9" target="wBh-NPlJDxmPa3w_uLtO-21" edge="1">
          <mxGeometry relative="1" as="geometry" />
        </mxCell>
        <mxCell id="wBh-NPlJDxmPa3w_uLtO-74" value="Contains" style="edgeLabel;html=1;align=center;verticalAlign=middle;resizable=0;points=[];" parent="wBh-NPlJDxmPa3w_uLtO-73" vertex="1" connectable="0">
          <mxGeometry x="0.0321" y="-3" relative="1" as="geometry">
            <mxPoint x="-32" as="offset" />
          </mxGeometry>
        </mxCell>
        <mxCell id="wBh-NPlJDxmPa3w_uLtO-75" value="1" style="edgeLabel;html=1;align=center;verticalAlign=middle;resizable=0;points=[];" parent="wBh-NPlJDxmPa3w_uLtO-73" vertex="1" connectable="0">
          <mxGeometry x="-0.8793" y="2" relative="1" as="geometry">
            <mxPoint y="-13" as="offset" />
          </mxGeometry>
        </mxCell>
        <mxCell id="wBh-NPlJDxmPa3w_uLtO-76" value="1" style="edgeLabel;html=1;align=center;verticalAlign=middle;resizable=0;points=[];" parent="wBh-NPlJDxmPa3w_uLtO-73" vertex="1" connectable="0">
          <mxGeometry x="0.8846" y="3" relative="1" as="geometry">
            <mxPoint y="-7" as="offset" />
          </mxGeometry>
        </mxCell>
        <mxCell id="__9sRC0eCz7Z9V6b7AUr-51" value="Room" style="swimlane;fontStyle=0;childLayout=stackLayout;horizontal=1;startSize=30;horizontalStack=0;resizeParent=1;resizeParentMax=0;resizeLast=0;collapsible=1;marginBottom=0;whiteSpace=wrap;html=1;" parent="1" vertex="1">
          <mxGeometry x="-570" y="-390" width="160" height="90" as="geometry" />
        </mxCell>
        <mxCell id="__9sRC0eCz7Z9V6b7AUr-52" value="Title" style="text;strokeColor=none;fillColor=none;align=left;verticalAlign=middle;spacingLeft=4;spacingRight=4;overflow=hidden;points=[[0,0.5],[1,0.5]];portConstraint=eastwest;rotatable=0;whiteSpace=wrap;html=1;" parent="__9sRC0eCz7Z9V6b7AUr-51" vertex="1">
          <mxGeometry y="30" width="160" height="30" as="geometry" />
        </mxCell>
        <mxCell id="T3I_EOAE7utK3L-I69bM-9" value="Design" style="text;strokeColor=none;fillColor=none;align=left;verticalAlign=middle;spacingLeft=4;spacingRight=4;overflow=hidden;points=[[0,0.5],[1,0.5]];portConstraint=eastwest;rotatable=0;whiteSpace=wrap;html=1;" vertex="1" parent="__9sRC0eCz7Z9V6b7AUr-51">
          <mxGeometry y="60" width="160" height="30" as="geometry" />
        </mxCell>
        <mxCell id="wBh-NPlJDxmPa3w_uLtO-4" style="edgeStyle=orthogonalEdgeStyle;rounded=0;orthogonalLoop=1;jettySize=auto;html=1;entryX=0.5;entryY=0;entryDx=0;entryDy=0;endArrow=classic;endFill=1;" parent="1" source="3Jhc_MBJD-DCVVYPn0BB-1" target="wBh-NPlJDxmPa3w_uLtO-2" edge="1">
          <mxGeometry relative="1" as="geometry" />
        </mxCell>
        <mxCell id="wBh-NPlJDxmPa3w_uLtO-5" value="Directs To" style="edgeLabel;html=1;align=center;verticalAlign=middle;resizable=0;points=[];" parent="wBh-NPlJDxmPa3w_uLtO-4" vertex="1" connectable="0">
          <mxGeometry x="-0.1067" y="-3" relative="1" as="geometry">
            <mxPoint x="-27" y="3" as="offset" />
          </mxGeometry>
        </mxCell>
        <mxCell id="wBh-NPlJDxmPa3w_uLtO-6" value="1" style="edgeLabel;html=1;align=center;verticalAlign=middle;resizable=0;points=[];" parent="wBh-NPlJDxmPa3w_uLtO-4" vertex="1" connectable="0">
          <mxGeometry x="-0.7733" y="2" relative="1" as="geometry">
            <mxPoint x="8" as="offset" />
          </mxGeometry>
        </mxCell>
        <mxCell id="wBh-NPlJDxmPa3w_uLtO-7" value="1" style="edgeLabel;html=1;align=center;verticalAlign=middle;resizable=0;points=[];" parent="wBh-NPlJDxmPa3w_uLtO-4" vertex="1" connectable="0">
          <mxGeometry x="0.5933" y="-2" relative="1" as="geometry">
            <mxPoint x="12" as="offset" />
          </mxGeometry>
        </mxCell>
        <mxCell id="3Jhc_MBJD-DCVVYPn0BB-1" value="Game" style="swimlane;fontStyle=0;childLayout=stackLayout;horizontal=1;startSize=30;horizontalStack=0;resizeParent=1;resizeParentMax=0;resizeLast=0;collapsible=1;marginBottom=0;whiteSpace=wrap;html=1;" parent="1" vertex="1">
          <mxGeometry x="-665" y="-1070" width="160" height="90" as="geometry" />
        </mxCell>
        <mxCell id="3Jhc_MBJD-DCVVYPn0BB-2" value="Title" style="text;strokeColor=none;fillColor=none;align=left;verticalAlign=middle;spacingLeft=4;spacingRight=4;overflow=hidden;points=[[0,0.5],[1,0.5]];portConstraint=eastwest;rotatable=0;whiteSpace=wrap;html=1;" parent="3Jhc_MBJD-DCVVYPn0BB-1" vertex="1">
          <mxGeometry y="30" width="160" height="30" as="geometry" />
        </mxCell>
        <mxCell id="wBh-NPlJDxmPa3w_uLtO-15" value="Music" style="text;strokeColor=none;fillColor=none;align=left;verticalAlign=middle;spacingLeft=4;spacingRight=4;overflow=hidden;points=[[0,0.5],[1,0.5]];portConstraint=eastwest;rotatable=0;whiteSpace=wrap;html=1;" parent="3Jhc_MBJD-DCVVYPn0BB-1" vertex="1">
          <mxGeometry y="60" width="160" height="30" as="geometry" />
        </mxCell>
        <mxCell id="3Jhc_MBJD-DCVVYPn0BB-12" value="Enemy" style="swimlane;fontStyle=0;childLayout=stackLayout;horizontal=1;startSize=30;horizontalStack=0;resizeParent=1;resizeParentMax=0;resizeLast=0;collapsible=1;marginBottom=0;whiteSpace=wrap;html=1;" parent="1" vertex="1">
          <mxGeometry x="-840" y="-920" width="160" height="180" as="geometry" />
        </mxCell>
        <mxCell id="3Jhc_MBJD-DCVVYPn0BB-13" value="Type" style="text;strokeColor=none;fillColor=none;align=left;verticalAlign=middle;spacingLeft=4;spacingRight=4;overflow=hidden;points=[[0,0.5],[1,0.5]];portConstraint=eastwest;rotatable=0;whiteSpace=wrap;html=1;" parent="3Jhc_MBJD-DCVVYPn0BB-12" vertex="1">
          <mxGeometry y="30" width="160" height="30" as="geometry" />
        </mxCell>
        <mxCell id="3Jhc_MBJD-DCVVYPn0BB-14" value="Skin" style="text;strokeColor=none;fillColor=none;align=left;verticalAlign=middle;spacingLeft=4;spacingRight=4;overflow=hidden;points=[[0,0.5],[1,0.5]];portConstraint=eastwest;rotatable=0;whiteSpace=wrap;html=1;" parent="3Jhc_MBJD-DCVVYPn0BB-12" vertex="1">
          <mxGeometry y="60" width="160" height="30" as="geometry" />
        </mxCell>
        <mxCell id="3Jhc_MBJD-DCVVYPn0BB-15" value="Health" style="text;strokeColor=none;fillColor=none;align=left;verticalAlign=middle;spacingLeft=4;spacingRight=4;overflow=hidden;points=[[0,0.5],[1,0.5]];portConstraint=eastwest;rotatable=0;whiteSpace=wrap;html=1;" parent="3Jhc_MBJD-DCVVYPn0BB-12" vertex="1">
          <mxGeometry y="90" width="160" height="30" as="geometry" />
        </mxCell>
        <mxCell id="3Jhc_MBJD-DCVVYPn0BB-16" value="Direction" style="text;strokeColor=none;fillColor=none;align=left;verticalAlign=middle;spacingLeft=4;spacingRight=4;overflow=hidden;points=[[0,0.5],[1,0.5]];portConstraint=eastwest;rotatable=0;whiteSpace=wrap;html=1;" parent="3Jhc_MBJD-DCVVYPn0BB-12" vertex="1">
          <mxGeometry y="120" width="160" height="30" as="geometry" />
        </mxCell>
        <mxCell id="3Jhc_MBJD-DCVVYPn0BB-17" value="Speed" style="text;strokeColor=none;fillColor=none;align=left;verticalAlign=middle;spacingLeft=4;spacingRight=4;overflow=hidden;points=[[0,0.5],[1,0.5]];portConstraint=eastwest;rotatable=0;whiteSpace=wrap;html=1;" parent="3Jhc_MBJD-DCVVYPn0BB-12" vertex="1">
          <mxGeometry y="150" width="160" height="30" as="geometry" />
        </mxCell>
        <mxCell id="wBh-NPlJDxmPa3w_uLtO-2" value="Main Menu" style="swimlane;fontStyle=0;childLayout=stackLayout;horizontal=1;startSize=30;horizontalStack=0;resizeParent=1;resizeParentMax=0;resizeLast=0;collapsible=1;marginBottom=0;whiteSpace=wrap;html=1;" parent="1" vertex="1">
          <mxGeometry x="-650" y="-890" width="160" height="120" as="geometry" />
        </mxCell>
        <mxCell id="wBh-NPlJDxmPa3w_uLtO-3" value="Dashboard" style="text;strokeColor=none;fillColor=none;align=left;verticalAlign=middle;spacingLeft=4;spacingRight=4;overflow=hidden;points=[[0,0.5],[1,0.5]];portConstraint=eastwest;rotatable=0;whiteSpace=wrap;html=1;" parent="wBh-NPlJDxmPa3w_uLtO-2" vertex="1">
          <mxGeometry y="30" width="160" height="30" as="geometry" />
        </mxCell>
        <mxCell id="wBh-NPlJDxmPa3w_uLtO-13" value="Background" style="text;strokeColor=none;fillColor=none;align=left;verticalAlign=middle;spacingLeft=4;spacingRight=4;overflow=hidden;points=[[0,0.5],[1,0.5]];portConstraint=eastwest;rotatable=0;whiteSpace=wrap;html=1;" parent="wBh-NPlJDxmPa3w_uLtO-2" vertex="1">
          <mxGeometry y="60" width="160" height="30" as="geometry" />
        </mxCell>
        <mxCell id="wBh-NPlJDxmPa3w_uLtO-14" value="Music" style="text;strokeColor=none;fillColor=none;align=left;verticalAlign=middle;spacingLeft=4;spacingRight=4;overflow=hidden;points=[[0,0.5],[1,0.5]];portConstraint=eastwest;rotatable=0;whiteSpace=wrap;html=1;" parent="wBh-NPlJDxmPa3w_uLtO-2" vertex="1">
          <mxGeometry y="90" width="160" height="30" as="geometry" />
        </mxCell>
        <mxCell id="wBh-NPlJDxmPa3w_uLtO-16" style="edgeStyle=orthogonalEdgeStyle;rounded=0;orthogonalLoop=1;jettySize=auto;html=1;entryX=0;entryY=0.25;entryDx=0;entryDy=0;endArrow=none;endFill=0;" parent="1" source="wBh-NPlJDxmPa3w_uLtO-9" target="__9sRC0eCz7Z9V6b7AUr-2" edge="1">
          <mxGeometry relative="1" as="geometry" />
        </mxCell>
        <mxCell id="wBh-NPlJDxmPa3w_uLtO-17" value="Owns" style="edgeLabel;html=1;align=center;verticalAlign=middle;resizable=0;points=[];" parent="wBh-NPlJDxmPa3w_uLtO-16" vertex="1" connectable="0">
          <mxGeometry x="-0.0863" y="1" relative="1" as="geometry">
            <mxPoint x="-17" y="-15" as="offset" />
          </mxGeometry>
        </mxCell>
        <mxCell id="wBh-NPlJDxmPa3w_uLtO-19" value="1" style="edgeLabel;html=1;align=center;verticalAlign=middle;resizable=0;points=[];" parent="wBh-NPlJDxmPa3w_uLtO-16" vertex="1" connectable="0">
          <mxGeometry x="-0.7922" y="1" relative="1" as="geometry">
            <mxPoint x="9" as="offset" />
          </mxGeometry>
        </mxCell>
        <mxCell id="wBh-NPlJDxmPa3w_uLtO-20" value="1" style="edgeLabel;html=1;align=center;verticalAlign=middle;resizable=0;points=[];" parent="wBh-NPlJDxmPa3w_uLtO-16" vertex="1" connectable="0">
          <mxGeometry x="0.6784" relative="1" as="geometry">
            <mxPoint x="10" as="offset" />
          </mxGeometry>
        </mxCell>
        <mxCell id="wBh-NPlJDxmPa3w_uLtO-9" value="User" style="swimlane;fontStyle=0;childLayout=stackLayout;horizontal=1;startSize=26;fillColor=none;horizontalStack=0;resizeParent=1;resizeParentMax=0;resizeLast=0;collapsible=1;marginBottom=0;whiteSpace=wrap;html=1;" parent="1" vertex="1">
          <mxGeometry x="-390" y="-1040" width="140" height="78" as="geometry" />
        </mxCell>
        <mxCell id="wBh-NPlJDxmPa3w_uLtO-10" value="Username" style="text;strokeColor=none;fillColor=none;align=left;verticalAlign=top;spacingLeft=4;spacingRight=4;overflow=hidden;rotatable=0;points=[[0,0.5],[1,0.5]];portConstraint=eastwest;whiteSpace=wrap;html=1;" parent="wBh-NPlJDxmPa3w_uLtO-9" vertex="1">
          <mxGeometry y="26" width="140" height="26" as="geometry" />
        </mxCell>
        <mxCell id="wBh-NPlJDxmPa3w_uLtO-11" value="Password" style="text;strokeColor=none;fillColor=none;align=left;verticalAlign=top;spacingLeft=4;spacingRight=4;overflow=hidden;rotatable=0;points=[[0,0.5],[1,0.5]];portConstraint=eastwest;whiteSpace=wrap;html=1;" parent="wBh-NPlJDxmPa3w_uLtO-9" vertex="1">
          <mxGeometry y="52" width="140" height="26" as="geometry" />
        </mxCell>
        <mxCell id="wBh-NPlJDxmPa3w_uLtO-33" style="edgeStyle=orthogonalEdgeStyle;rounded=0;orthogonalLoop=1;jettySize=auto;html=1;entryX=0.5;entryY=0;entryDx=0;entryDy=0;exitX=0.342;exitY=1;exitDx=0;exitDy=0;exitPerimeter=0;" parent="1" source="wBh-NPlJDxmPa3w_uLtO-24" target="__9sRC0eCz7Z9V6b7AUr-14" edge="1">
          <mxGeometry relative="1" as="geometry" />
        </mxCell>
        <mxCell id="wBh-NPlJDxmPa3w_uLtO-34" value="Consumes" style="edgeLabel;html=1;align=center;verticalAlign=middle;resizable=0;points=[];" parent="wBh-NPlJDxmPa3w_uLtO-33" vertex="1" connectable="0">
          <mxGeometry x="-0.0286" relative="1" as="geometry">
            <mxPoint x="-17" y="-10" as="offset" />
          </mxGeometry>
        </mxCell>
        <mxCell id="wBh-NPlJDxmPa3w_uLtO-35" value="1" style="edgeLabel;html=1;align=center;verticalAlign=middle;resizable=0;points=[];" parent="wBh-NPlJDxmPa3w_uLtO-33" vertex="1" connectable="0">
          <mxGeometry x="-0.6571" y="-1" relative="1" as="geometry">
            <mxPoint x="-14" as="offset" />
          </mxGeometry>
        </mxCell>
        <mxCell id="wBh-NPlJDxmPa3w_uLtO-36" value="0..1" style="edgeLabel;html=1;align=center;verticalAlign=middle;resizable=0;points=[];" parent="wBh-NPlJDxmPa3w_uLtO-33" vertex="1" connectable="0">
          <mxGeometry x="0.5429" y="-1" relative="1" as="geometry">
            <mxPoint x="-19" y="5" as="offset" />
          </mxGeometry>
        </mxCell>
        <mxCell id="wBh-NPlJDxmPa3w_uLtO-42" style="edgeStyle=orthogonalEdgeStyle;rounded=0;orthogonalLoop=1;jettySize=auto;html=1;entryX=0;entryY=0.5;entryDx=0;entryDy=0;" parent="1" source="wBh-NPlJDxmPa3w_uLtO-21" target="__9sRC0eCz7Z9V6b7AUr-42" edge="1">
          <mxGeometry relative="1" as="geometry" />
        </mxCell>
        <mxCell id="wBh-NPlJDxmPa3w_uLtO-43" value="Falls Into" style="edgeLabel;html=1;align=center;verticalAlign=middle;resizable=0;points=[];" parent="wBh-NPlJDxmPa3w_uLtO-42" vertex="1" connectable="0">
          <mxGeometry x="-0.0137" y="-2" relative="1" as="geometry">
            <mxPoint x="12" y="-29" as="offset" />
          </mxGeometry>
        </mxCell>
        <mxCell id="wBh-NPlJDxmPa3w_uLtO-44" value="1" style="edgeLabel;html=1;align=center;verticalAlign=middle;resizable=0;points=[];" parent="wBh-NPlJDxmPa3w_uLtO-42" vertex="1" connectable="0">
          <mxGeometry x="-0.8812" y="-1" relative="1" as="geometry">
            <mxPoint y="-11" as="offset" />
          </mxGeometry>
        </mxCell>
        <mxCell id="wBh-NPlJDxmPa3w_uLtO-45" value="1" style="edgeLabel;html=1;align=center;verticalAlign=middle;resizable=0;points=[];" parent="wBh-NPlJDxmPa3w_uLtO-42" vertex="1" connectable="0">
          <mxGeometry x="0.9" y="1" relative="1" as="geometry">
            <mxPoint y="-9" as="offset" />
          </mxGeometry>
        </mxCell>
        <mxCell id="wBh-NPlJDxmPa3w_uLtO-54" style="edgeStyle=orthogonalEdgeStyle;rounded=0;orthogonalLoop=1;jettySize=auto;html=1;entryX=-0.026;entryY=0.1;entryDx=0;entryDy=0;entryPerimeter=0;" parent="1" source="wBh-NPlJDxmPa3w_uLtO-21" target="__9sRC0eCz7Z9V6b7AUr-19" edge="1">
          <mxGeometry relative="1" as="geometry" />
        </mxCell>
        <mxCell id="wBh-NPlJDxmPa3w_uLtO-55" value="Travels" style="edgeLabel;html=1;align=center;verticalAlign=middle;resizable=0;points=[];" parent="wBh-NPlJDxmPa3w_uLtO-54" vertex="1" connectable="0">
          <mxGeometry x="0.4432" relative="1" as="geometry">
            <mxPoint y="-8" as="offset" />
          </mxGeometry>
        </mxCell>
        <mxCell id="wBh-NPlJDxmPa3w_uLtO-56" value="1" style="edgeLabel;html=1;align=center;verticalAlign=middle;resizable=0;points=[];" parent="wBh-NPlJDxmPa3w_uLtO-54" vertex="1" connectable="0">
          <mxGeometry x="0.8328" y="1" relative="1" as="geometry">
            <mxPoint y="-7" as="offset" />
          </mxGeometry>
        </mxCell>
        <mxCell id="wBh-NPlJDxmPa3w_uLtO-72" value="1" style="edgeLabel;html=1;align=center;verticalAlign=middle;resizable=0;points=[];" parent="wBh-NPlJDxmPa3w_uLtO-54" vertex="1" connectable="0">
          <mxGeometry x="-0.7603" y="1" relative="1" as="geometry">
            <mxPoint x="9" y="5" as="offset" />
          </mxGeometry>
        </mxCell>
        <mxCell id="wBh-NPlJDxmPa3w_uLtO-21" value="Character" style="swimlane;fontStyle=0;childLayout=stackLayout;horizontal=1;startSize=30;horizontalStack=0;resizeParent=1;resizeParentMax=0;resizeLast=0;collapsible=1;marginBottom=0;whiteSpace=wrap;html=1;" parent="1" vertex="1">
          <mxGeometry x="-380" y="-260" width="160" height="150" as="geometry" />
        </mxCell>
        <mxCell id="T3I_EOAE7utK3L-I69bM-1" value="Skin" style="text;strokeColor=none;fillColor=none;align=left;verticalAlign=middle;spacingLeft=4;spacingRight=4;overflow=hidden;points=[[0,0.5],[1,0.5]];portConstraint=eastwest;rotatable=0;whiteSpace=wrap;html=1;" vertex="1" parent="wBh-NPlJDxmPa3w_uLtO-21">
          <mxGeometry y="30" width="160" height="30" as="geometry" />
        </mxCell>
        <mxCell id="wBh-NPlJDxmPa3w_uLtO-22" value="Health" style="text;strokeColor=none;fillColor=none;align=left;verticalAlign=middle;spacingLeft=4;spacingRight=4;overflow=hidden;points=[[0,0.5],[1,0.5]];portConstraint=eastwest;rotatable=0;whiteSpace=wrap;html=1;" parent="wBh-NPlJDxmPa3w_uLtO-21" vertex="1">
          <mxGeometry y="60" width="160" height="30" as="geometry" />
        </mxCell>
        <mxCell id="wBh-NPlJDxmPa3w_uLtO-23" value="Speed" style="text;strokeColor=none;fillColor=none;align=left;verticalAlign=middle;spacingLeft=4;spacingRight=4;overflow=hidden;points=[[0,0.5],[1,0.5]];portConstraint=eastwest;rotatable=0;whiteSpace=wrap;html=1;" parent="wBh-NPlJDxmPa3w_uLtO-21" vertex="1">
          <mxGeometry y="90" width="160" height="30" as="geometry" />
        </mxCell>
        <mxCell id="wBh-NPlJDxmPa3w_uLtO-24" value="Direction" style="text;strokeColor=none;fillColor=none;align=left;verticalAlign=middle;spacingLeft=4;spacingRight=4;overflow=hidden;points=[[0,0.5],[1,0.5]];portConstraint=eastwest;rotatable=0;whiteSpace=wrap;html=1;" parent="wBh-NPlJDxmPa3w_uLtO-21" vertex="1">
          <mxGeometry y="120" width="160" height="30" as="geometry" />
        </mxCell>
        <mxCell id="wBh-NPlJDxmPa3w_uLtO-47" style="edgeStyle=orthogonalEdgeStyle;rounded=0;orthogonalLoop=1;jettySize=auto;html=1;entryX=1;entryY=0.5;entryDx=0;entryDy=0;" parent="1" source="wBh-NPlJDxmPa3w_uLtO-23" target="__9sRC0eCz7Z9V6b7AUr-11" edge="1">
          <mxGeometry relative="1" as="geometry">
            <mxPoint x="-440" y="302.93" as="targetPoint" />
          </mxGeometry>
        </mxCell>
        <mxCell id="wBh-NPlJDxmPa3w_uLtO-48" value="Wields" style="edgeLabel;html=1;align=center;verticalAlign=middle;resizable=0;points=[];" parent="wBh-NPlJDxmPa3w_uLtO-47" vertex="1" connectable="0">
          <mxGeometry x="0.0314" y="2" relative="1" as="geometry">
            <mxPoint x="-7" y="-38" as="offset" />
          </mxGeometry>
        </mxCell>
        <mxCell id="wBh-NPlJDxmPa3w_uLtO-50" value="1" style="edgeLabel;html=1;align=center;verticalAlign=middle;resizable=0;points=[];rotation=0;" parent="wBh-NPlJDxmPa3w_uLtO-47" vertex="1" connectable="0">
          <mxGeometry x="0.7924" y="-1" relative="1" as="geometry">
            <mxPoint y="-9" as="offset" />
          </mxGeometry>
        </mxCell>
        <mxCell id="wBh-NPlJDxmPa3w_uLtO-51" value="1" style="edgeLabel;html=1;align=center;verticalAlign=middle;resizable=0;points=[];" parent="wBh-NPlJDxmPa3w_uLtO-47" vertex="1" connectable="0">
          <mxGeometry x="-0.8724" relative="1" as="geometry">
            <mxPoint y="-15" as="offset" />
          </mxGeometry>
        </mxCell>
        <mxCell id="T3I_EOAE7utK3L-I69bM-2" value="Map" style="swimlane;fontStyle=0;childLayout=stackLayout;horizontal=1;startSize=30;horizontalStack=0;resizeParent=1;resizeParentMax=0;resizeLast=0;collapsible=1;marginBottom=0;whiteSpace=wrap;html=1;" vertex="1" parent="1">
          <mxGeometry x="-620" y="-710.0000000000001" width="160" height="90" as="geometry" />
        </mxCell>
        <mxCell id="T3I_EOAE7utK3L-I69bM-8" value="Room Title" style="text;strokeColor=none;fillColor=none;align=left;verticalAlign=middle;spacingLeft=4;spacingRight=4;overflow=hidden;points=[[0,0.5],[1,0.5]];portConstraint=eastwest;rotatable=0;whiteSpace=wrap;html=1;" vertex="1" parent="T3I_EOAE7utK3L-I69bM-2">
          <mxGeometry y="30" width="160" height="30" as="geometry" />
        </mxCell>
        <mxCell id="T3I_EOAE7utK3L-I69bM-3" value="Design" style="text;strokeColor=none;fillColor=none;align=left;verticalAlign=middle;spacingLeft=4;spacingRight=4;overflow=hidden;points=[[0,0.5],[1,0.5]];portConstraint=eastwest;rotatable=0;whiteSpace=wrap;html=1;" vertex="1" parent="T3I_EOAE7utK3L-I69bM-2">
          <mxGeometry y="60" width="160" height="30" as="geometry" />
        </mxCell>
        <mxCell id="T3I_EOAE7utK3L-I69bM-4" style="edgeStyle=orthogonalEdgeStyle;rounded=0;orthogonalLoop=1;jettySize=auto;html=1;exitX=0.75;exitY=0;exitDx=0;exitDy=0;entryX=1;entryY=0.5;entryDx=0;entryDy=0;endArrow=none;endFill=0;" edge="1" parent="1" source="__9sRC0eCz7Z9V6b7AUr-51" target="T3I_EOAE7utK3L-I69bM-3">
          <mxGeometry relative="1" as="geometry">
            <Array as="points">
              <mxPoint x="-450" y="-620" />
              <mxPoint x="-460" y="-620" />
            </Array>
          </mxGeometry>
        </mxCell>
        <mxCell id="T3I_EOAE7utK3L-I69bM-5" value="1" style="edgeLabel;html=1;align=center;verticalAlign=middle;resizable=0;points=[];" vertex="1" connectable="0" parent="T3I_EOAE7utK3L-I69bM-4">
          <mxGeometry x="-0.7677" y="2" relative="1" as="geometry">
            <mxPoint x="12" y="8" as="offset" />
          </mxGeometry>
        </mxCell>
        <mxCell id="T3I_EOAE7utK3L-I69bM-6" value="1" style="edgeLabel;html=1;align=center;verticalAlign=middle;resizable=0;points=[];" vertex="1" connectable="0" parent="T3I_EOAE7utK3L-I69bM-4">
          <mxGeometry x="0.7972" y="1" relative="1" as="geometry">
            <mxPoint x="11" as="offset" />
          </mxGeometry>
        </mxCell>
        <mxCell id="T3I_EOAE7utK3L-I69bM-7" value="Describes" style="edgeLabel;html=1;align=center;verticalAlign=middle;resizable=0;points=[];" vertex="1" connectable="0" parent="T3I_EOAE7utK3L-I69bM-4">
          <mxGeometry x="0.0968" y="4" relative="1" as="geometry">
            <mxPoint x="29" y="30" as="offset" />
          </mxGeometry>
        </mxCell>
        <mxCell id="T3I_EOAE7utK3L-I69bM-10" style="edgeStyle=orthogonalEdgeStyle;rounded=0;orthogonalLoop=1;jettySize=auto;html=1;entryX=0.5;entryY=0;entryDx=0;entryDy=0;" edge="1" parent="1" source="wBh-NPlJDxmPa3w_uLtO-13" target="wBh-NPlJDxmPa3w_uLtO-9">
          <mxGeometry relative="1" as="geometry" />
        </mxCell>
        <mxCell id="T3I_EOAE7utK3L-I69bM-11" value="Directs To" style="edgeLabel;html=1;align=center;verticalAlign=middle;resizable=0;points=[];" vertex="1" connectable="0" parent="T3I_EOAE7utK3L-I69bM-10">
          <mxGeometry x="-0.4133" y="4" relative="1" as="geometry">
            <mxPoint x="-31" y="-57" as="offset" />
          </mxGeometry>
        </mxCell>
        <mxCell id="T3I_EOAE7utK3L-I69bM-12" value="1" style="edgeLabel;html=1;align=center;verticalAlign=middle;resizable=0;points=[];" vertex="1" connectable="0" parent="T3I_EOAE7utK3L-I69bM-10">
          <mxGeometry x="-0.9269" y="3" relative="1" as="geometry">
            <mxPoint x="-5" y="-12" as="offset" />
          </mxGeometry>
        </mxCell>
        <mxCell id="T3I_EOAE7utK3L-I69bM-13" value="1" style="edgeLabel;html=1;align=center;verticalAlign=middle;resizable=0;points=[];" vertex="1" connectable="0" parent="T3I_EOAE7utK3L-I69bM-10">
          <mxGeometry x="0.9295" y="1" relative="1" as="geometry">
            <mxPoint x="9" y="1" as="offset" />
          </mxGeometry>
        </mxCell>
        <mxCell id="T3I_EOAE7utK3L-I69bM-20" style="edgeStyle=orthogonalEdgeStyle;rounded=0;orthogonalLoop=1;jettySize=auto;html=1;entryX=0.5;entryY=0;entryDx=0;entryDy=0;exitX=1;exitY=0.5;exitDx=0;exitDy=0;" edge="1" parent="1" source="T3I_EOAE7utK3L-I69bM-46" target="T3I_EOAE7utK3L-I69bM-18">
          <mxGeometry relative="1" as="geometry">
            <mxPoint x="-329.909090909091" y="-592" as="sourcePoint" />
          </mxGeometry>
        </mxCell>
        <mxCell id="T3I_EOAE7utK3L-I69bM-30" value="1" style="edgeLabel;html=1;align=center;verticalAlign=middle;resizable=0;points=[];" vertex="1" connectable="0" parent="T3I_EOAE7utK3L-I69bM-20">
          <mxGeometry x="-0.7172" y="-1" relative="1" as="geometry">
            <mxPoint x="2" y="-9" as="offset" />
          </mxGeometry>
        </mxCell>
        <mxCell id="T3I_EOAE7utK3L-I69bM-31" value="1" style="edgeLabel;html=1;align=center;verticalAlign=middle;resizable=0;points=[];" vertex="1" connectable="0" parent="T3I_EOAE7utK3L-I69bM-20">
          <mxGeometry x="0.7577" y="1" relative="1" as="geometry">
            <mxPoint x="-11" as="offset" />
          </mxGeometry>
        </mxCell>
        <mxCell id="T3I_EOAE7utK3L-I69bM-32" value="Directs To" style="edgeLabel;html=1;align=center;verticalAlign=middle;resizable=0;points=[];" vertex="1" connectable="0" parent="T3I_EOAE7utK3L-I69bM-20">
          <mxGeometry x="0.2433" y="1" relative="1" as="geometry">
            <mxPoint x="29" y="11" as="offset" />
          </mxGeometry>
        </mxCell>
        <mxCell id="T3I_EOAE7utK3L-I69bM-26" style="edgeStyle=orthogonalEdgeStyle;rounded=0;orthogonalLoop=1;jettySize=auto;html=1;entryX=1;entryY=0.25;entryDx=0;entryDy=0;" edge="1" parent="1" source="T3I_EOAE7utK3L-I69bM-18" target="__9sRC0eCz7Z9V6b7AUr-51">
          <mxGeometry relative="1" as="geometry" />
        </mxCell>
        <mxCell id="T3I_EOAE7utK3L-I69bM-27" value="Directs To" style="edgeLabel;html=1;align=center;verticalAlign=middle;resizable=0;points=[];" vertex="1" connectable="0" parent="T3I_EOAE7utK3L-I69bM-26">
          <mxGeometry x="-0.0797" y="-2" relative="1" as="geometry">
            <mxPoint x="32" y="20" as="offset" />
          </mxGeometry>
        </mxCell>
        <mxCell id="T3I_EOAE7utK3L-I69bM-28" value="1" style="edgeLabel;html=1;align=center;verticalAlign=middle;resizable=0;points=[];" vertex="1" connectable="0" parent="T3I_EOAE7utK3L-I69bM-26">
          <mxGeometry x="-0.8121" y="-3" relative="1" as="geometry">
            <mxPoint x="10" y="13" as="offset" />
          </mxGeometry>
        </mxCell>
        <mxCell id="T3I_EOAE7utK3L-I69bM-29" value="1" style="edgeLabel;html=1;align=center;verticalAlign=middle;resizable=0;points=[];" vertex="1" connectable="0" parent="T3I_EOAE7utK3L-I69bM-26">
          <mxGeometry x="0.6793" y="-1" relative="1" as="geometry">
            <mxPoint x="1" y="-9" as="offset" />
          </mxGeometry>
        </mxCell>
        <mxCell id="T3I_EOAE7utK3L-I69bM-18" value="Game Screen" style="swimlane;fontStyle=0;childLayout=stackLayout;horizontal=1;startSize=30;horizontalStack=0;resizeParent=1;resizeParentMax=0;resizeLast=0;collapsible=1;marginBottom=0;whiteSpace=wrap;html=1;" vertex="1" parent="1">
          <mxGeometry x="-310" y="-470" width="160" height="60" as="geometry" />
        </mxCell>
        <mxCell id="T3I_EOAE7utK3L-I69bM-19" value="Layout" style="text;strokeColor=none;fillColor=none;align=left;verticalAlign=middle;spacingLeft=4;spacingRight=4;overflow=hidden;points=[[0,0.5],[1,0.5]];portConstraint=eastwest;rotatable=0;whiteSpace=wrap;html=1;" vertex="1" parent="T3I_EOAE7utK3L-I69bM-18">
          <mxGeometry y="30" width="160" height="30" as="geometry" />
        </mxCell>
        <mxCell id="T3I_EOAE7utK3L-I69bM-33" value="Ending Screen" style="swimlane;fontStyle=0;childLayout=stackLayout;horizontal=1;startSize=30;horizontalStack=0;resizeParent=1;resizeParentMax=0;resizeLast=0;collapsible=1;marginBottom=0;whiteSpace=wrap;html=1;" vertex="1" parent="1">
          <mxGeometry x="-850" y="-430" width="160" height="60" as="geometry" />
        </mxCell>
        <mxCell id="T3I_EOAE7utK3L-I69bM-34" value="Layout" style="text;strokeColor=none;fillColor=none;align=left;verticalAlign=middle;spacingLeft=4;spacingRight=4;overflow=hidden;points=[[0,0.5],[1,0.5]];portConstraint=eastwest;rotatable=0;whiteSpace=wrap;html=1;" vertex="1" parent="T3I_EOAE7utK3L-I69bM-33">
          <mxGeometry y="30" width="160" height="30" as="geometry" />
        </mxCell>
        <mxCell id="T3I_EOAE7utK3L-I69bM-36" style="edgeStyle=orthogonalEdgeStyle;rounded=0;orthogonalLoop=1;jettySize=auto;html=1;entryX=1.009;entryY=0.069;entryDx=0;entryDy=0;entryPerimeter=0;exitX=0;exitY=0.5;exitDx=0;exitDy=0;" edge="1" parent="1" source="__9sRC0eCz7Z9V6b7AUr-52" target="T3I_EOAE7utK3L-I69bM-34">
          <mxGeometry relative="1" as="geometry">
            <Array as="points">
              <mxPoint x="-630" y="-345" />
              <mxPoint x="-630" y="-398" />
            </Array>
          </mxGeometry>
        </mxCell>
        <mxCell id="T3I_EOAE7utK3L-I69bM-37" value="1" style="edgeLabel;html=1;align=center;verticalAlign=middle;resizable=0;points=[];" vertex="1" connectable="0" parent="T3I_EOAE7utK3L-I69bM-36">
          <mxGeometry x="0.8508" relative="1" as="geometry">
            <mxPoint x="-8" y="-12" as="offset" />
          </mxGeometry>
        </mxCell>
        <mxCell id="T3I_EOAE7utK3L-I69bM-38" value="1" style="edgeLabel;html=1;align=center;verticalAlign=middle;resizable=0;points=[];" vertex="1" connectable="0" parent="T3I_EOAE7utK3L-I69bM-36">
          <mxGeometry x="-0.9023" y="1" relative="1" as="geometry">
            <mxPoint x="-1" y="14" as="offset" />
          </mxGeometry>
        </mxCell>
        <mxCell id="T3I_EOAE7utK3L-I69bM-39" value="Directs To" style="edgeLabel;html=1;align=center;verticalAlign=middle;resizable=0;points=[];" vertex="1" connectable="0" parent="T3I_EOAE7utK3L-I69bM-36">
          <mxGeometry x="0.0058" y="-4" relative="1" as="geometry">
            <mxPoint x="16" y="-11" as="offset" />
          </mxGeometry>
        </mxCell>
        <mxCell id="T3I_EOAE7utK3L-I69bM-45" value="Difficulty Menu" style="swimlane;fontStyle=0;childLayout=stackLayout;horizontal=1;startSize=30;horizontalStack=0;resizeParent=1;resizeParentMax=0;resizeLast=0;collapsible=1;marginBottom=0;whiteSpace=wrap;html=1;" vertex="1" parent="1">
          <mxGeometry x="-425" y="-660" width="160" height="60" as="geometry" />
        </mxCell>
        <mxCell id="T3I_EOAE7utK3L-I69bM-46" value="Name" style="text;strokeColor=none;fillColor=none;align=left;verticalAlign=middle;spacingLeft=4;spacingRight=4;overflow=hidden;points=[[0,0.5],[1,0.5]];portConstraint=eastwest;rotatable=0;whiteSpace=wrap;html=1;" vertex="1" parent="T3I_EOAE7utK3L-I69bM-45">
          <mxGeometry y="30" width="160" height="30" as="geometry" />
        </mxCell>
      </root>
    </mxGraphModel>
  </diagram>
</mxfile>
